<svg width="301" height="301" viewBox="0 0 301 301" fill="none" xmlns="http://www.w3.org/2000/svg">
<rect width="301" height="301" rx="30" fill="#1E448C"/>
<path d="M75.2539 94.062C75.2539 87.8281 80.3075 82.7745 86.5414 82.7745H162.329V105.35H86.5414C80.3075 105.35 75.2539 100.296 75.2539 94.062Z" fill="white"/>
<path d="M66.6406 169.312C66.6406 163.078 71.6942 158.024 77.9281 158.024H153.716V180.599H77.9281C71.6942 180.599 66.6406 175.546 66.6406 169.312Z" fill="white"/>
<path d="M45.1445 139.212C45.1445 132.978 50.1981 127.925 56.432 127.925H116.095V150.5H56.432C50.1981 150.5 45.1445 145.446 45.1445 139.212Z" fill="white"/>
<path d="M124.699 206.937C124.699 200.703 129.753 195.649 135.987 195.649L224.674 195.649L224.674 218.224L135.987 218.224C129.753 218.224 124.699 213.171 124.699 206.937Z" fill="white"/>
<path d="M153.738 131.687C153.738 125.453 158.792 120.399 165.026 120.399L227.913 120.399L227.913 142.974L165.026 142.974C158.792 142.974 153.738 137.921 153.738 131.687Z" fill="white"/>
<path fill-rule="evenodd" clip-rule="evenodd" d="M234.901 218.225C261.914 218.225 283.813 196.326 283.813 169.312C283.813 142.299 261.914 120.4 234.901 120.4L211.251 120.4C193.934 120.4 178.719 129.398 170.028 142.974L230.604 142.974C245.15 142.974 256.942 154.766 256.942 169.312C256.942 183.858 245.15 195.65 230.605 195.65L170.027 195.65C178.719 209.226 193.934 218.225 211.251 218.225H234.901Z" fill="white"/>
<path d="M240.801 94.0621C240.801 100.296 235.747 105.35 229.513 105.35L153.726 105.35L153.726 82.7746L229.513 82.7746C235.747 82.7746 240.801 87.8282 240.801 94.0621Z" fill="white"/>
<path d="M242.953 131.687C242.953 137.921 237.9 142.975 231.666 142.975L205.328 142.975L205.328 120.4L231.666 120.4C237.9 120.4 242.953 125.453 242.953 131.687Z" fill="white"/>
<path d="M115.02 206.937C115.02 213.171 109.966 218.225 103.732 218.225L100.507 218.225C94.2731 218.225 89.2195 213.171 89.2195 206.937C89.2195 200.703 94.2731 195.65 100.507 195.65L103.732 195.65C109.966 195.65 115.02 200.703 115.02 206.937Z" fill="#F36F21"/>
<path d="M58.0547 169.312C58.0547 175.546 53.0011 180.6 46.7672 180.6L28.4922 180.6C22.2583 180.6 17.2047 175.546 17.2047 169.312C17.2047 163.078 22.2583 158.025 28.4922 158.025L46.7672 158.025C53.0011 158.025 58.0547 163.078 58.0547 169.312Z" fill="#F36F21"/>
<path d="M65.582 94.0621C65.582 100.296 60.5284 105.35 54.2945 105.35L52.1445 105.35C45.9106 105.35 40.857 100.296 40.857 94.0621C40.857 87.8282 45.9106 82.7746 52.1445 82.7746L54.2945 82.7746C60.5284 82.7746 65.582 87.8282 65.582 94.0621Z" fill="#F36F21"/>
<path d="M224.672 169.312C224.672 175.546 219.618 180.6 213.384 180.6L137.597 180.6L137.597 158.025L213.384 158.025C219.618 158.025 224.672 163.078 224.672 169.312Z" fill="white"/>
<path fill-rule="evenodd" clip-rule="evenodd" d="M143.51 82.7737C126.193 82.7737 110.978 91.7726 102.287 105.349H104.803C111.037 105.349 116.091 110.403 116.091 116.637C116.091 122.87 111.037 127.924 104.803 127.924H94.7402C94.6457 129.166 94.5977 130.42 94.5977 131.686C94.5977 138.353 95.9314 144.708 98.3467 150.5H106.964C109.042 150.5 110.726 152.184 110.726 154.262C110.726 156.34 109.042 158.025 106.964 158.025H102.287C110.979 171.6 126.194 180.599 143.51 180.599L167.16 180.599C184.477 180.599 199.691 171.6 208.383 158.024L147.806 158.024C133.261 158.024 121.469 146.232 121.469 131.686C121.469 117.141 133.261 105.349 147.806 105.349L208.384 105.349C199.692 91.7725 184.477 82.7737 167.16 82.7737L143.51 82.7737Z" fill="white"/>
<path d="M169.842 122.343C175.241 125.46 177.09 132.363 173.973 137.762L170.326 144.079C167.209 149.478 160.306 151.328 154.907 148.211C149.508 145.094 147.659 138.191 150.776 132.792L154.423 126.475C157.54 121.076 164.443 119.226 169.842 122.343Z" fill="white"/>
<path d="M145.838 189.187C151.237 192.304 153.086 199.207 149.97 204.606L145.59 212.19C142.473 217.589 135.57 219.439 130.171 216.322C124.773 213.205 122.923 206.302 126.04 200.903L130.419 193.318C133.536 187.919 140.439 186.07 145.838 189.187Z" fill="white"/>
</svg>
