<svg width="408" height="100" viewBox="0 0 408 100" fill="none" xmlns="http://www.w3.org/2000/svg">
<rect x="0.5" y="0.5" width="98.2928" height="98.2928" rx="7.5" fill="white" stroke="#1E448C"/>
<path d="M24.8242 31.0262C24.8242 28.9698 26.4913 27.3027 28.5477 27.3027H53.5482V34.7497H28.5477C26.4913 34.7497 24.8242 33.0826 24.8242 31.0262Z" fill="#00529C"/>
<path d="M21.9883 55.8485C21.9883 53.7921 23.6553 52.125 25.7118 52.125H50.7123V59.572H25.7118C23.6553 59.572 21.9883 57.9049 21.9883 55.8485Z" fill="#00529C"/>
<path d="M14.8906 45.9207C14.8906 43.8643 16.5577 42.1973 18.6141 42.1973H38.2954V49.6442H18.6141C16.5577 49.6442 14.8906 47.9772 14.8906 45.9207Z" fill="#00529C"/>
<path d="M41.1367 68.2625C41.1367 66.2061 42.8038 64.5391 44.8602 64.5391L74.1161 64.5391L74.1161 71.986L44.8602 71.986C42.8038 71.986 41.1367 70.319 41.1367 68.2625Z" fill="#00529C"/>
<path d="M50.6992 43.4373C50.6992 41.3809 52.3663 39.7139 54.4227 39.7139L75.1678 39.7139L75.1678 47.1608L54.4227 47.1608C52.3663 47.1608 50.6992 45.4938 50.6992 43.4373Z" fill="#00529C"/>
<path fill-rule="evenodd" clip-rule="evenodd" d="M77.4784 71.986C86.3896 71.986 93.6135 64.7621 93.6135 55.8509C93.6135 46.9397 86.3896 39.7158 77.4784 39.7158L69.6768 39.7158C63.9646 39.7158 58.9456 42.6842 56.0783 47.1626L76.0655 47.1626C80.8638 47.1626 84.7536 51.0524 84.7536 55.8507C84.7536 60.6491 80.8638 64.5389 76.0655 64.5389L56.0781 64.5389C58.9454 69.0175 63.9644 71.986 69.6768 71.986L77.4784 71.986Z" fill="#00529C"/>
<path d="M79.4297 31.0265C79.4297 33.0829 77.7626 34.75 75.7062 34.75L50.7057 34.75L50.7057 27.303L75.7062 27.303C77.7626 27.303 79.4297 28.9701 79.4297 31.0265Z" fill="#00529C"/>
<path d="M80.1328 43.4367C80.1328 45.4931 78.4658 47.1602 76.4093 47.1602L67.7212 47.1602L67.7212 39.7132L76.4093 39.7132C78.4658 39.7132 80.1328 41.3803 80.1328 43.4367Z" fill="#00529C"/>
<path d="M37.9375 68.2599C37.9375 70.3163 36.2704 71.9834 34.214 71.9834L33.1502 71.9834C31.0937 71.9834 29.4267 70.3163 29.4267 68.2599C29.4267 66.2035 31.0937 64.5364 33.1502 64.5364L34.214 64.5364C36.2704 64.5364 37.9375 66.2035 37.9375 68.2599Z" fill="#F36F21"/>
<path d="M19.1445 55.8468C19.1445 57.9033 17.4775 59.5703 15.4211 59.5703L9.39255 59.5703C7.33613 59.5703 5.66908 57.9033 5.66908 55.8468C5.66908 53.7904 7.33613 52.1234 9.39256 52.1234L15.4211 52.1234C17.4775 52.1234 19.1445 53.7904 19.1445 55.8468Z" fill="#F36F21"/>
<path d="M21.6328 31.0265C21.6328 33.0829 19.9658 34.75 17.9093 34.75L17.2001 34.75C15.1437 34.75 13.4766 33.0829 13.4766 31.0265C13.4766 28.9701 15.1437 27.303 17.2001 27.303L17.9093 27.303C19.9658 27.303 21.6328 28.9701 21.6328 31.0265Z" fill="#F36F21"/>
<path d="M74.1094 55.8468C74.1094 57.9033 72.4423 59.5703 70.3859 59.5703L45.3854 59.5703L45.3854 52.1233L70.3859 52.1234C72.4423 52.1234 74.1094 53.7904 74.1094 55.8468Z" fill="#00529C"/>
<path fill-rule="evenodd" clip-rule="evenodd" d="M47.3304 27.2998C41.6178 27.2998 36.5985 30.2686 33.7313 34.7475H34.5615C36.6179 34.7475 38.285 36.4146 38.285 38.471C38.285 40.5274 36.6179 42.1945 34.5615 42.1945H31.2423C31.2112 42.6039 31.1953 43.0175 31.1953 43.4349C31.1953 45.6338 31.6352 47.7299 32.4317 49.6402H35.285C35.9705 49.6402 36.5262 50.1958 36.5262 50.8813C36.5262 51.5668 35.9705 52.1225 35.285 52.1225H33.7314C36.5986 56.6013 41.6178 59.57 47.3304 59.57H55.132C60.8442 59.57 65.8632 56.6016 68.7305 52.1232L48.7433 52.1232C43.945 52.1232 40.0552 48.2334 40.0552 43.4351C40.0552 38.6367 43.945 34.7469 48.7433 34.7469L68.7307 34.7469C65.8634 30.2683 60.8444 27.2998 55.132 27.2998H47.3304Z" fill="#00529C"/>
<path d="M56.0176 40.356C57.7985 41.3842 58.4087 43.6615 57.3804 45.4424L56.1773 47.5264C55.1491 49.3073 52.8718 49.9175 51.0909 48.8893C49.31 47.861 48.6998 45.5838 49.728 43.8029L50.9312 41.7189C51.9594 39.938 54.2366 39.3278 56.0176 40.356Z" fill="#00529C"/>
<path d="M48.0996 62.4058C49.8805 63.434 50.4907 65.7113 49.4625 67.4922L48.0179 69.9943C46.9897 71.7752 44.7124 72.3854 42.9315 71.3572C41.1506 70.329 40.5404 68.0517 41.5686 66.2708L43.0132 63.7687C44.0414 61.9878 46.3187 61.3776 48.0996 62.4058Z" fill="#00529C"/>
<path d="M106.738 9.74805H127.521C130.985 9.74805 133.64 10.5968 135.486 12.2943C137.349 13.9917 138.28 16.0934 138.28 18.5992C138.28 20.7008 137.619 22.5034 136.295 24.0068C135.413 25.0091 134.122 25.8013 132.423 26.3833C135.005 26.9976 136.9 28.0565 138.109 29.56C139.334 31.0473 139.947 32.9226 139.947 35.1859C139.947 37.0289 139.514 38.6859 138.648 40.1571C137.782 41.6282 136.598 42.7922 135.094 43.649C134.163 44.1825 132.758 44.5705 130.879 44.813C128.379 45.1363 126.721 45.298 125.904 45.298H106.738V9.74805ZM117.939 23.6916H122.767C124.499 23.6916 125.7 23.4006 126.369 22.8186C127.056 22.2204 127.399 21.3636 127.399 20.2481C127.399 19.2135 127.056 18.4052 126.369 17.8232C125.7 17.2412 124.523 16.9502 122.84 16.9502H117.939V23.6916ZM117.939 37.6594H123.6C125.512 37.6594 126.86 37.328 127.644 36.6651C128.428 35.9861 128.82 35.0808 128.82 33.9492C128.82 32.8984 128.428 32.0577 127.644 31.4272C126.876 30.7806 125.52 30.4572 123.575 30.4572H117.939V37.6594Z" fill="white"/>
<path d="M139.904 45.298V9.74805H158.408C161.839 9.74805 164.461 10.039 166.275 10.621C168.088 11.203 169.551 12.2862 170.662 13.8705C171.773 15.4386 172.328 17.3543 172.328 19.6176C172.328 21.5899 171.904 23.2955 171.054 24.7343C170.204 26.157 169.036 27.3129 167.549 28.202C166.602 28.7678 165.303 29.2367 163.652 29.6085C164.976 30.045 165.94 30.4815 166.544 30.918C166.953 31.209 167.541 31.8314 168.309 32.7852C169.093 33.739 169.616 34.4746 169.877 34.9919L175.245 45.298H162.697L156.766 34.4342C156.014 33.0277 155.344 32.1143 154.756 31.694C153.955 31.1443 153.048 30.8695 152.035 30.8695H151.055V45.298H139.904ZM151.055 24.1523H155.736C156.243 24.1523 157.223 23.9907 158.677 23.6673C159.412 23.5218 160.009 23.15 160.466 22.5519C160.94 21.9537 161.177 21.2666 161.177 20.4906C161.177 19.3428 160.809 18.4617 160.074 17.8474C159.339 17.2331 157.958 16.9259 155.932 16.9259H151.055V24.1523Z" fill="white"/>
<path d="M173.241 9.74805H184.368V45.298H173.241V9.74805Z" fill="white"/>
<path d="M192.344 45.451V10.4736H199.155L213.346 33.8316V10.4736H219.85V45.451H212.826L198.848 22.6417V45.451H192.344Z" fill="#F36F21"/>
<path d="M236.931 37.3866L243.553 38.508C242.701 40.9575 241.353 42.8265 239.509 44.1149C237.68 45.3873 235.385 46.0236 232.626 46.0236C228.259 46.0236 225.026 44.5841 222.929 41.7051C221.274 39.3987 220.446 36.4879 220.446 32.9727C220.446 28.7735 221.534 25.4889 223.71 23.1189C225.886 20.733 228.637 19.5401 231.964 19.5401C235.701 19.5401 238.649 20.7887 240.809 23.2859C242.969 25.7673 244.002 29.5768 243.908 34.7144H227.257C227.305 36.7027 227.841 38.2535 228.866 39.3669C229.89 40.4644 231.168 41.0132 232.697 41.0132C233.738 41.0132 234.613 40.7269 235.322 40.1543C236.032 39.5817 236.568 38.6591 236.931 37.3866ZM237.309 30.6107C237.262 28.6701 236.765 27.1988 235.819 26.1967C234.873 25.1787 233.722 24.6698 232.366 24.6698C230.915 24.6698 229.717 25.2026 228.771 26.2683C227.825 27.334 227.36 28.7815 227.376 30.6107H237.309Z" fill="#F36F21"/>
<path d="M249.187 45.451L241.24 20.1127H247.697L252.403 36.7186L256.731 20.1127H263.141L267.327 36.7186L272.128 20.1127H278.679L270.614 45.451H264.229L259.9 29.1553L255.643 45.451H249.187Z" fill="#F36F21"/>
<path d="M106.738 51.6971H119.544C122.432 51.6971 124.634 51.919 126.149 52.3629C128.185 52.9654 129.928 54.0355 131.38 55.5734C132.832 57.1112 133.937 58.9978 134.694 61.2332C135.452 63.4528 135.83 66.1955 135.83 69.4615C135.83 72.331 135.475 74.8043 134.765 76.8811C133.897 79.4178 132.658 81.4709 131.049 83.0404C129.834 84.2295 128.192 85.1569 126.125 85.8228C124.579 86.3143 122.511 86.56 119.923 86.56H106.738V51.6971ZM113.745 57.5948V80.6861H118.976C120.933 80.6861 122.346 80.5751 123.214 80.3532C124.35 80.0678 125.289 79.5843 126.03 78.9025C126.788 78.2208 127.403 77.1031 127.877 75.5494C128.35 73.9799 128.587 71.8475 128.587 69.1523C128.587 66.4571 128.35 64.3882 127.877 62.9455C127.403 61.5028 126.741 60.3771 125.888 59.5686C125.036 58.76 123.955 58.2131 122.645 57.9277C121.667 57.7057 119.75 57.5948 116.893 57.5948H113.745Z" fill="#F36F21"/>
<path d="M151.458 78.522L158.086 79.6397C157.234 82.0813 155.885 83.9441 154.038 85.2283C152.208 86.4966 149.912 87.1308 147.15 87.1308C142.779 87.1308 139.544 85.696 137.445 82.8264C135.788 80.5276 134.959 77.6263 134.959 74.1225C134.959 69.9371 136.048 66.6632 138.226 64.301C140.404 61.9229 143.157 60.7338 146.487 60.7338C150.227 60.7338 153.178 61.9784 155.34 64.4675C157.502 66.9407 158.536 70.7377 158.441 75.8586H141.777C141.824 77.8403 142.36 79.3861 143.386 80.4959C144.412 81.5898 145.69 82.1367 147.221 82.1367C148.263 82.1367 149.138 81.8514 149.849 81.2806C150.559 80.7099 151.095 79.7904 151.458 78.522ZM151.837 71.7682C151.79 69.834 151.292 68.3675 150.346 67.3687C149.399 66.3541 148.247 65.8468 146.89 65.8468C145.438 65.8468 144.238 66.3779 143.292 67.4401C142.345 68.5023 141.879 69.945 141.895 71.7682H151.837Z" fill="#F36F21"/>
<path d="M159.038 86.56V51.6971H165.689V86.56H159.038Z" fill="#F36F21"/>
<path d="M167.682 57.8801V51.6971H174.334V57.8801H167.682ZM167.682 86.56V61.3046H174.334V86.56H167.682Z" fill="#F36F21"/>
<path d="M183.239 86.56L173.108 61.3046H180.091L184.825 74.1939L186.198 78.4983C186.561 77.4043 186.79 76.683 186.885 76.3342C187.106 75.6208 187.342 74.9073 187.595 74.1939L192.376 61.3046H199.217L189.228 86.56H183.239Z" fill="#F36F21"/>
<path d="M213.023 78.522L219.651 79.6397C218.798 82.0813 217.449 83.9441 215.603 85.2283C213.772 86.4966 211.476 87.1308 208.714 87.1308C204.343 87.1308 201.108 85.696 199.009 82.8264C197.352 80.5276 196.524 77.6263 196.524 74.1225C196.524 69.9371 197.613 66.6632 199.79 64.301C201.968 61.9229 204.722 60.7338 208.052 60.7338C211.792 60.7338 214.743 61.9784 216.905 64.4675C219.067 66.9407 220.1 70.7377 220.006 75.8586H203.341C203.388 77.8403 203.925 79.3861 204.951 80.4959C205.976 81.5898 207.255 82.1367 208.785 82.1367C209.827 82.1367 210.703 81.8514 211.413 81.2806C212.123 80.7099 212.66 79.7904 213.023 78.522ZM213.401 71.7682C213.354 69.834 212.857 68.3675 211.91 67.3687C210.963 66.3541 209.811 65.8468 208.454 65.8468C207.002 65.8468 205.803 66.3779 204.856 67.4401C203.909 68.5023 203.444 69.945 203.459 71.7682H213.401Z" fill="#F36F21"/>
<path d="M226.97 86.56H220.318V61.3046H226.496V64.8955C227.554 63.1991 228.5 62.0814 229.337 61.5424C230.189 61.0034 231.152 60.7338 232.225 60.7338C233.74 60.7338 235.199 61.154 236.604 61.9942L234.545 67.8206C233.424 67.0913 232.383 66.7267 231.42 66.7267C230.489 66.7267 229.7 66.9882 229.053 67.5114C228.406 68.0188 227.893 68.9462 227.514 70.2938C227.151 71.6414 226.97 74.4634 226.97 78.7598V86.56Z" fill="#F36F21"/>
<path d="M231.496 61.3046H238.573L244.586 79.2355L250.456 61.3046H257.345L248.468 85.6088L246.882 90.0083C246.298 91.4827 245.738 92.6083 245.201 93.3852C244.681 94.162 244.073 94.7882 243.379 95.2639C242.7 95.7553 241.856 96.1358 240.846 96.4053C239.852 96.6749 238.723 96.8096 237.461 96.8096C236.183 96.8096 234.928 96.6749 233.697 96.4053L233.105 91.1735C234.147 91.3796 235.086 91.4827 235.922 91.4827C237.469 91.4827 238.613 91.0229 239.355 90.1034C240.096 89.1997 240.664 88.0424 241.059 86.6314L231.496 61.3046Z" fill="#F36F21"/>
<path d="M263.698 75.2165L270.515 74.5506C270.926 76.8494 271.754 78.5379 273.001 79.616C274.263 80.694 275.96 81.2331 278.09 81.2331C280.347 81.2331 282.043 80.7574 283.18 79.8062C284.332 78.8391 284.908 77.7135 284.908 76.4293C284.908 75.6049 284.663 74.9073 284.174 74.3366C283.7 73.75 282.864 73.2427 281.665 72.8146C280.844 72.5292 278.974 72.0219 276.055 71.2926C272.299 70.3572 269.663 69.2078 268.148 67.8444C266.018 65.926 264.953 63.5876 264.953 60.829C264.953 59.0533 265.45 57.3966 266.444 55.8587C267.454 54.305 268.898 53.1239 270.776 52.3154C272.67 51.5068 274.95 51.1025 277.617 51.1025C281.972 51.1025 285.247 52.0617 287.44 53.98C289.65 55.8984 290.81 58.4588 290.92 61.6613L283.913 61.9705C283.614 60.179 282.967 58.8948 281.972 58.1179C280.994 57.3252 279.518 56.9289 277.546 56.9289C275.51 56.9289 273.916 57.349 272.764 58.1893C272.023 58.7283 271.652 59.4497 271.652 60.3533C271.652 61.1778 271.999 61.8833 272.693 62.4699C273.577 63.215 275.723 63.9918 279.132 64.8004C282.541 65.609 285.058 66.4492 286.683 67.3212C288.324 68.1773 289.602 69.3584 290.518 70.8646C291.449 72.3548 291.914 74.2018 291.914 76.4055C291.914 78.4031 291.362 80.2739 290.257 82.0178C289.153 83.7618 287.59 85.0618 285.57 85.9179C283.551 86.7582 281.033 87.1783 278.019 87.1783C273.632 87.1783 270.263 86.1637 267.912 84.1343C265.56 82.0892 264.156 79.1166 263.698 75.2165Z" fill="#F36F21"/>
<path d="M289.765 61.3046H296.843L302.855 79.2355L308.726 61.3046H315.614L306.737 85.6088L305.151 90.0083C304.567 91.4827 304.007 92.6083 303.471 93.3852C302.95 94.162 302.342 94.7882 301.648 95.2639C300.969 95.7553 300.125 96.1358 299.115 96.4053C298.121 96.6749 296.993 96.8096 295.73 96.8096C294.452 96.8096 293.197 96.6749 291.966 96.4053L291.375 91.1735C292.416 91.3796 293.355 91.4827 294.192 91.4827C295.738 91.4827 296.882 91.0229 297.624 90.1034C298.366 89.1997 298.934 88.0424 299.328 86.6314L289.765 61.3046Z" fill="#F36F21"/>
<path d="M312.707 79.3544L319.383 78.3318C319.667 79.6318 320.243 80.6227 321.111 81.3044C321.979 81.9703 323.194 82.3032 324.756 82.3032C326.476 82.3032 327.77 81.9861 328.638 81.352C329.222 80.9081 329.514 80.3135 329.514 79.5684C329.514 79.0611 329.356 78.6409 329.04 78.308C328.709 77.9909 327.967 77.6976 326.815 77.4281C321.45 76.2391 318.049 75.1531 316.613 74.1701C314.625 72.8067 313.63 70.9121 313.63 68.4865C313.63 66.2986 314.491 64.4595 316.211 62.9693C317.931 61.479 320.598 60.7338 324.212 60.7338C327.652 60.7338 330.208 61.2967 331.881 62.4223C333.554 63.5479 334.706 65.2126 335.337 67.4163L329.064 68.5816C328.796 67.5986 328.283 66.8456 327.526 66.3224C326.784 65.7992 325.719 65.5376 324.33 65.5376C322.578 65.5376 321.324 65.7833 320.566 66.2748C320.061 66.6236 319.809 67.0754 319.809 67.6303C319.809 68.106 320.03 68.5102 320.471 68.8432C321.071 69.2871 323.138 69.9133 326.673 70.7219C330.224 71.5304 332.702 72.5213 334.106 73.6945C335.495 74.8835 336.189 76.5403 336.189 78.6647C336.189 80.9794 335.227 82.9691 333.301 84.6338C331.376 86.2984 328.528 87.1308 324.756 87.1308C321.332 87.1308 318.617 86.4332 316.613 85.038C314.625 83.6429 313.323 81.7483 312.707 79.3544Z" fill="#F36F21"/>
<path d="M348.716 61.3046V66.6315H344.171V76.8098C344.171 78.8708 344.211 80.0757 344.29 80.4245C344.384 80.7574 344.582 81.0349 344.881 81.2568C345.197 81.4788 345.576 81.5898 346.018 81.5898C346.633 81.5898 347.525 81.3758 348.692 80.9477L349.261 86.132C347.714 86.7978 345.962 87.1308 344.006 87.1308C342.806 87.1308 341.725 86.9326 340.763 86.5362C339.8 86.124 339.09 85.6008 338.632 84.9667C338.19 84.3167 337.883 83.4447 337.709 82.3508C337.567 81.5739 337.496 80.0044 337.496 77.6421V66.6315H334.442V61.3046H337.496V56.2868L344.171 52.3867V61.3046H348.716Z" fill="#F36F21"/>
<path d="M363.042 78.522L369.67 79.6397C368.818 82.0813 367.469 83.9441 365.622 85.2283C363.792 86.4966 361.495 87.1308 358.734 87.1308C354.363 87.1308 351.127 85.696 349.029 82.8264C347.372 80.5276 346.543 77.6263 346.543 74.1225C346.543 69.9371 347.632 66.6632 349.81 64.301C351.987 61.9229 354.741 60.7338 358.071 60.7338C361.811 60.7338 364.762 61.9784 366.924 64.4675C369.086 66.9407 370.12 70.7377 370.025 75.8586H353.36C353.408 77.8403 353.944 79.3861 354.97 80.4959C355.996 81.5898 357.274 82.1367 358.805 82.1367C359.846 82.1367 360.722 81.8514 361.432 81.2806C362.142 80.7099 362.679 79.7904 363.042 78.522ZM363.421 71.7682C363.373 69.834 362.876 68.3675 361.929 67.3687C360.983 66.3541 359.831 65.8468 358.473 65.8468C357.022 65.8468 355.822 66.3779 354.875 67.4401C353.929 68.5023 353.463 69.945 353.479 71.7682H363.421Z" fill="#F36F21"/>
<path d="M370.124 61.3046H376.255V64.7528C378.449 62.0735 381.061 60.7338 384.091 60.7338C385.7 60.7338 387.097 61.0668 388.28 61.7326C389.464 62.3985 390.434 63.4052 391.192 64.7528C392.297 63.4052 393.488 62.3985 394.766 61.7326C396.045 61.0668 397.41 60.7338 398.861 60.7338C400.708 60.7338 402.27 61.1143 403.548 61.8753C404.827 62.6205 405.781 63.7223 406.413 65.1809C406.87 66.259 407.099 68.0029 407.099 70.4127V86.56H400.447V72.1249C400.447 69.62 400.219 68.0029 399.761 67.2736C399.146 66.3224 398.199 65.8468 396.92 65.8468C395.989 65.8468 395.113 66.1321 394.293 66.7029C393.472 67.2736 392.88 68.1139 392.518 69.2237C392.155 70.3176 391.973 72.0536 391.973 74.4317V86.56H385.321V72.7195C385.321 70.2621 385.203 68.6767 384.966 67.9633C384.73 67.2498 384.359 66.7187 383.854 66.3699C383.365 66.0212 382.694 65.8468 381.842 65.8468C380.816 65.8468 379.893 66.1242 379.072 66.6791C378.252 67.234 377.66 68.0346 377.297 69.081C376.95 70.1273 376.776 71.8634 376.776 74.289V86.56H370.124V61.3046Z" fill="#F36F21"/>
</svg>
